<?xml version="1.0" encoding="UTF-8"?>
<svg version="1.1" xmlns="http://www.w3.org/2000/svg" width="1024" height="1024">
<path d="M0 0 C337.92 0 675.84 0 1024 0 C1024 337.92 1024 675.84 1024 1024 C686.08 1024 348.16 1024 0 1024 C0 686.08 0 348.16 0 0 Z " fill="#FEFEFE" transform="translate(0,0)"/>
<path d="M0 0 C0.7119754 0.00126892 1.42395081 0.00253784 2.15750122 0.00384521 C35.77161919 0.11799444 67.86857298 8.08556068 97.5 24.1875 C98.64210938 24.78949219 99.78421875 25.39148438 100.9609375 26.01171875 C116.50735531 34.49643419 130.25501316 45.17557782 142.85400391 57.57666016 C144.35461905 59.04522419 145.88485326 60.4833667 147.41796875 61.91796875 C159.9510917 73.87236164 169.8521768 88.24804053 178.5 103.1875 C178.88639648 103.85185059 179.27279297 104.51620117 179.67089844 105.20068359 C190.52721473 124.11506199 199.62746869 146.40200522 202.51879883 168.12109375 C203.540543 175.74468121 205.27402261 180.35332017 211.078125 185.6953125 C213.4477844 188.13376846 214.81068614 190.51226214 216.37768555 193.50537109 C218.14605943 196.70965591 219.70806119 198.72603558 222.5 201.1875 C227.80874445 202.62788827 233.50876676 201.67719089 238.92089844 201.28564453 C265.72134449 200.26578659 293.23818452 214.16896302 312.5078125 231.91796875 C331.29219292 250.0625542 344.1328414 275.92418099 344.6328125 302.30078125 C344.63593949 303.70051976 344.63320996 305.10028207 344.625 306.5 C344.62669189 307.23984131 344.62838379 307.97968262 344.63012695 308.74194336 C344.61301906 312.98886109 344.3048031 317.04058078 343.6875 321.25 C343.17957138 326.02166749 344.2498971 328.18319271 347.03125 331.984375 C358.51999032 349.21748548 358.88955742 374.54337448 355.375 394.25 C351.38751733 410.75892357 344.31415172 425.05226206 333.5 438.1875 C332.7575 439.1775 332.015 440.1675 331.25 441.1875 C319.3394538 455.18625885 301.5215163 464.17588861 283.9375 468.4375 C283.26557617 468.60088867 282.59365234 468.76427734 281.90136719 468.93261719 C271.0920972 471.37107203 260.12787803 471.33401545 249.09983826 471.32121277 C247.56049722 471.3230841 246.02115665 471.32538609 244.48181683 471.32807809 C240.27722664 471.33416277 236.07265643 471.33406644 231.86806285 471.33288372 C227.32321741 471.33267886 222.77837825 471.33820659 218.23353577 471.34294128 C209.33821925 471.35123041 200.44290935 471.35399535 191.54758929 471.35455366 C184.3121163 471.35502971 177.07664548 471.35708887 169.84117317 471.36025429 C149.30110801 471.3690566 128.76104806 471.3736744 108.22098099 471.37292381 C107.11479311 471.37288386 106.00860522 471.3728439 104.86889648 471.37280273 C103.76134866 471.37276185 102.65380084 471.37272097 101.51269097 471.37267885 C83.574464 471.37227264 65.63625804 471.38183704 47.69803714 471.3959411 C29.25353808 471.4103281 10.80904926 471.41720999 -7.63545555 471.41634732 C-17.98024664 471.41601613 -28.3250157 471.41872917 -38.66980171 471.42952538 C-47.47958501 471.43866106 -56.2893363 471.44078058 -65.09912229 471.43401595 C-69.58741666 471.430766 -74.07564972 471.43063842 -78.56393814 471.4393692 C-117.11670198 471.50943598 -150.77899351 468.61724499 -179.61889648 440.38110352 C-184.16610396 435.83389604 -188.58374921 431.30200663 -192.5 426.1875 C-193.40621094 426.39246094 -194.31242188 426.59742188 -195.24609375 426.80859375 C-196.46425781 427.07800781 -197.68242187 427.34742188 -198.9375 427.625 C-200.13246094 427.89183594 -201.32742188 428.15867187 -202.55859375 428.43359375 C-211.80047843 430.29241349 -221.03178942 430.42918958 -230.4375 430.4375 C-231.12497314 430.43817474 -231.81244629 430.43884949 -232.52075195 430.43954468 C-268.79845938 430.38309158 -300.28486887 415.97080502 -326.25 390.8125 C-340.6890225 375.82462577 -351.77175952 357.89606904 -358.5 338.1875 C-358.83572021 337.21876953 -358.83572021 337.21876953 -359.17822266 336.23046875 C-371.76742553 299.26146246 -368.82390556 258.59289747 -351.76171875 223.625 C-334.73834484 189.85746692 -305.7140932 165.98333583 -270.1875 153.5 C-264.57527355 151.71375566 -258.93004075 150.24243235 -253.1875 148.9375 C-252.47102295 148.77419189 -251.7545459 148.61088379 -251.01635742 148.44262695 C-242.21813814 146.5494414 -233.42094836 145.99234148 -224.4375 146 C-223.08918091 146.00012085 -223.08918091 146.00012085 -221.71362305 146.00024414 C-200.51937393 146.17781303 -200.51937393 146.17781303 -194.5 149.1875 C-194.41290771 148.60991943 -194.32581543 148.03233887 -194.23608398 147.43725586 C-192.96656196 140.09490891 -190.49931277 133.57731443 -187.5625 126.75 C-187.07450928 125.61127441 -186.58651855 124.47254883 -186.08374023 123.29931641 C-178.8706939 106.82194496 -169.7578645 92.18426822 -158.5 78.1875 C-158.03062012 77.60242676 -157.56124023 77.01735352 -157.07763672 76.41455078 C-147.64728954 64.75791498 -137.31087239 54.46398987 -125.5 45.1875 C-124.57316406 44.42050781 -123.64632812 43.65351563 -122.69140625 42.86328125 C-88.07948277 14.91269025 -44.27312404 -0.08106156 0 0 Z " fill="#A2C0CA" transform="translate(477.5,148.8125)"/>
<path d="M0 0 C0.7119754 0.00126892 1.42395081 0.00253784 2.15750122 0.00384521 C35.77161919 0.11799444 67.86857298 8.08556068 97.5 24.1875 C98.64210938 24.78949219 99.78421875 25.39148438 100.9609375 26.01171875 C116.50735531 34.49643419 130.25501316 45.17557782 142.85400391 57.57666016 C144.35461905 59.04522419 145.88485326 60.4833667 147.41796875 61.91796875 C159.9510917 73.87236164 169.8521768 88.24804053 178.5 103.1875 C178.88639648 103.85185059 179.27279297 104.51620117 179.67089844 105.20068359 C191.34929189 125.54732299 203.92129539 153.30005117 203.5 177.1875 C202.5925 176.40375 201.685 175.62 200.75 174.8125 C199.33445519 173.60285262 197.91760355 172.39473405 196.5 171.1875 C195.58089844 170.40246094 194.66179688 169.61742187 193.71484375 168.80859375 C187.5311555 163.58237981 181.29459613 158.6069078 174.5 154.1875 C173.41460938 153.47851562 172.32921875 152.76953125 171.2109375 152.0390625 C155.6067999 142.12388898 138.38500243 135.67695603 120.5 131.1875 C119.79101562 131.00815918 119.08203125 130.82881836 118.3515625 130.64404297 C82.00963214 122.01283451 41.94408642 128.74207448 9.38916016 146.17724609 C7.58502231 147.14203317 5.76738371 148.08144614 3.94921875 149.01953125 C-5.83300768 154.28177083 -14.0821253 160.99932811 -22.5 168.1875 C-23.1285791 168.71456543 -23.7571582 169.24163086 -24.40478516 169.78466797 C-27.49391955 172.38926425 -30.39131805 174.96136279 -33 178.0625 C-35.29545769 180.76786085 -37.62186993 183.42957028 -40 186.0625 C-43.88603617 190.52712378 -47.25588415 195.24022333 -50.5 200.1875 C-51.20125 201.25484375 -51.9025 202.3221875 -52.625 203.421875 C-61.39987213 217.19805918 -67.86700239 232.53898358 -72.5 248.1875 C-73.42296875 248.043125 -74.3459375 247.89875 -75.296875 247.75 C-107.73393321 243.13445021 -138.27460498 248.13988711 -165.0625 267.75 C-166.89353615 269.20615827 -168.70714254 270.68458536 -170.5 272.1875 C-171.80324219 273.26451172 -171.80324219 273.26451172 -173.1328125 274.36328125 C-194.13459573 292.44279801 -207.62723878 319.65687168 -210.5 347.1875 C-211.64561913 372.85200221 -208.08742321 399.39415424 -193.6015625 421.234375 C-192.5 423.1875 -192.5 423.1875 -192.5 426.1875 C-194.64451505 426.67253256 -196.79069535 427.15020405 -198.9375 427.625 C-200.13246094 427.89183594 -201.32742188 428.15867187 -202.55859375 428.43359375 C-211.80047843 430.29241349 -221.03178942 430.42918958 -230.4375 430.4375 C-231.12497314 430.43817474 -231.81244629 430.43884949 -232.52075195 430.43954468 C-268.79845938 430.38309158 -300.28486887 415.97080502 -326.25 390.8125 C-340.6890225 375.82462577 -351.77175952 357.89606904 -358.5 338.1875 C-358.83572021 337.21876953 -358.83572021 337.21876953 -359.17822266 336.23046875 C-371.76742553 299.26146246 -368.82390556 258.59289747 -351.76171875 223.625 C-334.73834484 189.85746692 -305.7140932 165.98333583 -270.1875 153.5 C-264.57527355 151.71375566 -258.93004075 150.24243235 -253.1875 148.9375 C-252.47102295 148.77419189 -251.7545459 148.61088379 -251.01635742 148.44262695 C-242.21813814 146.5494414 -233.42094836 145.99234148 -224.4375 146 C-223.08918091 146.00012085 -223.08918091 146.00012085 -221.71362305 146.00024414 C-200.51937393 146.17781303 -200.51937393 146.17781303 -194.5 149.1875 C-194.41290771 148.60991943 -194.32581543 148.03233887 -194.23608398 147.43725586 C-192.96656196 140.09490891 -190.49931277 133.57731443 -187.5625 126.75 C-187.07450928 125.61127441 -186.58651855 124.47254883 -186.08374023 123.29931641 C-178.8706939 106.82194496 -169.7578645 92.18426822 -158.5 78.1875 C-158.03062012 77.60242676 -157.56124023 77.01735352 -157.07763672 76.41455078 C-147.64728954 64.75791498 -137.31087239 54.46398987 -125.5 45.1875 C-124.57316406 44.42050781 -123.64632812 43.65351563 -122.69140625 42.86328125 C-88.07948277 14.91269025 -44.27312404 -0.08106156 0 0 Z " fill="#85AAB3" transform="translate(477.5,148.8125)"/>
<path d="M0 0 C2 0.8125 2 0.8125 3.1105957 2.4284668 C4.30501241 5.63008062 4.24171816 8.35257943 4.23046875 11.76953125 C4.23050903 12.45628937 4.23054932 13.14304749 4.23059082 13.85061646 C4.22718018 16.10893478 4.20820839 18.36677836 4.1875 20.625 C4.17859183 22.20711151 4.16988674 23.78922418 4.16137695 25.37133789 C4.12911322 30.18539793 4.06898031 34.99884103 4 39.8125 C3.99033203 40.52555298 3.98066406 41.23860596 3.97070312 41.9732666 C3.70051723 61.06978048 2.37972743 79.86598906 0 98.8125 C-0.18997559 100.38257813 -0.18997559 100.38257813 -0.38378906 101.984375 C-4.95019198 139.564798 -4.95019198 139.564798 -19.91015625 151.3125 C-29.43560477 157.67542387 -39.73510665 159.26585771 -51 157.8125 C-62.09451108 155.02696825 -70.64171075 149.94609135 -76.68359375 140.18359375 C-82.2616994 130.13638269 -84.72762607 120.43895722 -82.421875 108.92578125 C-74.20018846 81.53261655 -51.5083394 56.74694759 -34 34.8125 C-33.32839844 33.95785156 -32.65679687 33.10320313 -31.96484375 32.22265625 C-6.0813959 -0.57013087 -6.0813959 -0.57013087 0 0 Z " fill="#98CAEB" transform="translate(423,665.1875)"/>
<path d="M0 0 C2.93818851 2.93818851 1.2469325 13.13431264 1.25 17.4375 C1.25067474 18.27932831 1.25134949 19.12115662 1.25204468 19.98849487 C1.21788935 47.15474863 -0.88987728 74.19109644 -4.375 101.125 C-4.46792328 101.87065216 -4.56084656 102.61630432 -4.65658569 103.384552 C-6.86205057 120.77406461 -10.5795447 138.56450528 -24.625 150.30859375 C-34.37972001 157.25562297 -45.36510175 158.16642591 -57 157 C-68.00441833 154.43355431 -76.5388726 147.33505001 -82.5 137.875 C-88.06106192 127.60117373 -88.38181029 116.53678301 -85.67822266 105.25390625 C-84.57027695 101.57192108 -82.90989874 98.29827043 -81.0625 94.9375 C-80.47033691 93.84296509 -80.47033691 93.84296509 -79.86621094 92.72631836 C-75.8780414 85.51544051 -71.30538953 78.77114444 -66.49755859 72.08740234 C-64.92699302 69.89823774 -63.37882868 67.6942922 -61.83203125 65.48828125 C-55.43529248 56.42687459 -48.68374944 47.88106228 -41.35498047 39.56103516 C-39.28130732 37.17201423 -37.2990106 34.71162059 -35.3125 32.25 C-31.04813673 27.00214395 -26.55455213 21.99582362 -22 17 C-20.45801971 15.271113 -18.91635099 13.54194806 -17.375 11.8125 C-5.21980711 -1.68380874 -5.21980711 -1.68380874 0 0 Z " fill="#97CAEB" transform="translate(580,666)"/>
<path d="M0 0 C1.77418558 1.77418558 1.14057457 4.13554863 1.15179443 6.49815369 C1.14810852 7.27348953 1.14442261 8.04882538 1.140625 8.84765625 C1.13806702 9.65485611 1.13550903 10.46205597 1.13287354 11.29371643 C1.05561442 20.36952856 0.43852541 29.39088685 -0.25 38.4375 C-0.31558105 39.32398224 -0.38116211 40.21046448 -0.44873047 41.12380981 C-1.50564159 55.40589156 -2.70735426 69.67493996 -4 83.9375 C-4.07754517 84.81203827 -4.15509033 85.68657654 -4.23498535 86.58761597 C-5.0663351 95.89391916 -6.07703029 105.14116028 -7.515625 114.375 C-7.69653687 115.5422184 -7.69653687 115.5422184 -7.88110352 116.73301697 C-9.9323922 129.33338277 -14.88633601 140.56755706 -25.10546875 148.6875 C-36.01431452 156.24496841 -45.96102871 157.114071 -59 156 C-62.43243976 155.14850787 -65.06054474 153.93491665 -68 152 C-69.010625 151.443125 -70.02125 150.88625 -71.0625 150.3125 C-79.08563784 143.99641276 -85.05528359 136.1737479 -87 126 C-88.32447548 106.71911111 -81.58963312 93.23322449 -70.1484375 77.890625 C-68.23928178 75.32194275 -66.38003949 72.72388491 -64.53613281 70.1081543 C-55.53341846 57.35670393 -46.02039266 44.96831488 -36 33 C-35.58572754 32.50081055 -35.17145508 32.00162109 -34.74462891 31.48730469 C-6.79026452 -2.19040791 -6.79026452 -2.19040791 0 0 Z " fill="#97CAEB" transform="translate(728,666)"/>
<path d="M0 0 C29.81425215 10.28628803 51.92420025 29.39281095 66.23779297 57.69238281 C72.35322387 71.15581207 75.45694148 85.36369761 75.36279297 100.12988281 C75.36085938 100.86907959 75.35892578 101.60827637 75.35693359 102.36987305 C75.31601325 107.54004435 74.98278922 112.57053362 74.23779297 117.69238281 C73.57779297 117.69238281 72.91779297 117.69238281 72.23779297 117.69238281 C70.68701172 115.93457031 70.68701172 115.93457031 68.92529297 113.56738281 C68.29623047 112.74109375 67.66716797 111.91480469 67.01904297 111.06347656 C66.43123047 110.28101563 65.84341797 109.49855469 65.23779297 108.69238281 C52.52017319 91.85012959 31.44217525 83.41802146 11.40576172 79.07910156 C6.88618677 78.52739019 2.41140335 78.54816333 -2.13720703 78.56738281 C-3.04470703 78.56351562 -3.95220703 78.55964844 -4.88720703 78.55566406 C-10.27086433 78.56342149 -15.43573886 78.90651046 -20.76220703 79.69238281 C-20.86017578 78.4690625 -20.95814453 77.24574219 -21.05908203 75.98535156 C-23.19350035 51.2012802 -28.9131708 28.63570342 -40.76220703 6.69238281 C-41.37064453 5.55671875 -41.97908203 4.42105469 -42.60595703 3.25097656 C-43.97538747 0.72205196 -45.35834967 -1.7976904 -46.76220703 -4.30761719 C-34.89708492 -10.24017824 -11.83657025 -3.82056563 0 0 Z " fill="#84A9B3" transform="translate(746.76220703125,355.3076171875)"/>
<path d="M0 0 C1.91967773 0.90356445 1.91967773 0.90356445 3.15527344 2.50488281 C4.1958416 5.77015979 4.18551944 8.89260019 4.15014648 12.2824707 C4.15000298 13.36372726 4.15000298 13.36372726 4.14985657 14.46682739 C4.14614504 16.800078 4.12725695 19.13290193 4.10717773 21.46606445 C4.1003384 23.05891789 4.09382831 24.65177278 4.08764648 26.24462891 C4.02683547 37.15097874 3.73304319 48.0248015 2.91967773 58.90356445 C2.58967773 58.90356445 2.25967773 58.90356445 1.91967773 58.90356445 C1.58967773 40.42356445 1.25967773 21.94356445 0.91967773 2.90356445 C-3.56405035 4.02449647 -4.67640349 5.14572416 -7.84594727 8.3762207 C-8.73540039 9.2753418 -9.62485352 10.17446289 -10.54125977 11.10083008 C-11.46165039 12.04635742 -12.38204102 12.99188477 -13.33032227 13.96606445 C-14.27493899 14.92573419 -15.22024421 15.88472674 -16.16625977 16.84301758 C-18.47781399 19.18995273 -20.78208567 21.54359836 -23.08032227 23.90356445 C-23.08032227 20.36061523 -22.60401921 20.02092478 -20.26391602 17.5402832 C-19.66385742 16.90026367 -19.06379883 16.26024414 -18.44555664 15.60083008 C-17.8094043 14.93760742 -17.17325195 14.27438477 -16.51782227 13.59106445 C-15.90874023 12.93944336 -15.2996582 12.28782227 -14.67211914 11.61645508 C-11.66334151 8.43574729 -8.58123666 5.33248861 -5.36547852 2.3605957 C-4.82930908 1.86148682 -4.29313965 1.36237793 -3.74072266 0.84814453 C-2.08032227 -0.09643555 -2.08032227 -0.09643555 0 0 Z " fill="#8EC4E9" transform="translate(423.080322265625,665.096435546875)"/>
<path d="M0 0 C0.66 0.33 1.32 0.66 2 1 C-2.86963642 6.47563562 -7.75055649 11.8851576 -13 17 C-13.66 16.67 -14.32 16.34 -15 16 C-13.25113898 14.08228343 -11.50095499 12.16580317 -9.75 10.25 C-9.25886719 9.71117187 -8.76773438 9.17234375 -8.26171875 8.6171875 C-5.57126836 5.6756284 -2.8468489 2.7926232 0 0 Z " fill="#8DC4E9" transform="translate(572,668)"/>
<path d="M0 0 C0.99 0.33 1.98 0.66 3 1 C1.75965588 2.32162881 0.50731374 3.63200453 -0.75 4.9375 C-1.44609375 5.66839844 -2.1421875 6.39929688 -2.859375 7.15234375 C-5.00599725 9.00517646 -6.23532932 9.60771565 -9 10 C-8.06409496 8.8944811 -7.12620142 7.79064547 -6.1875 6.6875 C-5.66542969 6.07261719 -5.14335937 5.45773437 -4.60546875 4.82421875 C-3.12827531 3.14575321 -1.59960869 1.56117966 0 0 Z " fill="#79A1AC" transform="translate(157,331)"/>
<path d="M0 0 C0 3.96130371 -1.34877125 4.82914401 -4 7.6875 C-4.7425 8.49574219 -5.485 9.30398438 -6.25 10.13671875 C-6.8275 10.75160156 -7.405 11.36648438 -8 12 C-8.66 11.67 -9.32 11.34 -10 11 C-6.7 7.37 -3.4 3.74 0 0 Z " fill="#89C2E8" transform="translate(714,674)"/>
<path d="M0 0 C0 3.73928499 -0.91959602 4.40902253 -3.375 7.125 C-4.31472656 8.18074219 -4.31472656 8.18074219 -5.2734375 9.2578125 C-7 11 -7 11 -9 12 C-7.55575365 8.76138697 -5.74227753 6.38030837 -3.375 3.75 C-2.74335937 3.04359375 -2.11171875 2.3371875 -1.4609375 1.609375 C-0.97882812 1.07828125 -0.49671875 0.5471875 0 0 Z " fill="#8AC3E9" transform="translate(550,692)"/>
</svg>
