<?xml version="1.0" encoding="UTF-8"?>
<svg version="1.1" xmlns="http://www.w3.org/2000/svg" width="1024" height="1024">
<path d="M0 0 C337.92 0 675.84 0 1024 0 C1024 337.92 1024 675.84 1024 1024 C686.08 1024 348.16 1024 0 1024 C0 686.08 0 348.16 0 0 Z " fill="#FEFEFE" transform="translate(0,0)"/>
<path d="M0 0 C1.19375244 0.23227295 1.19375244 0.23227295 2.41162109 0.46923828 C28.83904533 5.70600898 54.35155037 16.96364482 76 33 C76.56799316 33.41540039 77.13598633 33.83080078 77.72119141 34.25878906 C85.0186199 39.64102746 91.80532106 45.50756752 98.4375 51.6875 C99.08775146 52.29295654 99.73800293 52.89841309 100.40795898 53.5222168 C132.74585323 84.18194671 155.21006095 127.46517011 161.31518555 171.56542969 C162.40575803 175.44250233 164.87699083 177.6521298 167.7265625 180.38671875 C169.72067995 182.67892592 170.64174149 184.19177521 171.8359375 186.89453125 C173.90079609 191.29351052 175.82890409 195.28419572 180 198 C187.49133232 199.69682869 195.37285707 198.63548405 202.96484375 198.12158203 C209.24012714 197.87020726 214.98657015 199.26294196 221 201 C222.23492188 201.35191406 223.46984375 201.70382812 224.7421875 202.06640625 C253.31521813 210.91878691 275.89350983 229.3318486 289.9921875 255.6484375 C296.87884523 269.16722643 301.1556655 284.36774383 301.125 299.5625 C301.12886719 300.25722412 301.13273438 300.95194824 301.13671875 301.66772461 C301.12841521 306.22688936 300.64714149 310.54278168 300 315.0625 C299.42526068 321.82143437 301.44326737 325.6940123 304.80688477 331.3046875 C308.72198665 337.88843667 310.45065439 344.51587292 312 352 C312.28617188 353.34771484 312.28617188 353.34771484 312.578125 354.72265625 C314.4571019 369.31952312 313.77699842 384.0695605 309 398 C308.78569336 398.63728027 308.57138672 399.27456055 308.35058594 399.93115234 C299.99346715 424.29087632 281.55602657 442.43809536 259.22265625 454.5 C251.50539853 458.21356762 243.25701769 460.77506552 235 463 C234.37844528 463.1779863 233.75689056 463.3559726 233.11650085 463.53935242 C223.90303643 465.78892919 214.40719996 465.2488731 204.9921875 465.1953125 C203.05591987 465.19157679 201.11965033 465.18873246 199.18338013 465.18673706 C194.1166857 465.1791445 189.05010812 465.15953414 183.98345947 465.1373291 C178.80148905 465.11677582 173.61949954 465.10771516 168.4375 465.09765625 C158.29161567 465.07628368 148.1458176 465.04220127 138 465 C137.86440674 465.9391626 137.72881348 466.8783252 137.58911133 467.84594727 C136.92519175 471.4005171 135.8672794 473.08077047 133.6875 475.9375 C132.96820312 476.88625 132.24890625 477.835 131.5078125 478.8125 C128.20957115 483.02913785 124.8611232 487.20623957 121.50146484 491.37402344 C116.11560025 498.06261845 110.99543148 504.93357626 105.90234375 511.84765625 C98.45872597 521.88505736 90.56580011 531.55087656 82.546875 541.1328125 C75.24971905 549.87196441 68.35636121 558.81467444 61.65234375 568.015625 C52.45771893 580.61706322 42.97982155 593.01047257 33 605 C25.44209887 614.1786924 18.06288427 623.43348138 11 633 C9.58408084 634.87556455 8.16739305 636.75054904 6.75 638.625 C2.95279704 643.68131039 -0.74821886 648.80207207 -4.4375 653.9375 C-9.07010968 660.38181973 -13.80276628 666.72517338 -18.671875 672.9921875 C-20.97886849 675.97269922 -23.24491378 678.98007684 -25.5 682 C-26.22832031 682.97066406 -26.95664062 683.94132813 -27.70703125 684.94140625 C-28.89633801 686.52782395 -30.08512476 688.1146478 -31.26708984 689.70654297 C-32.56715868 691.4553468 -33.87655776 693.19683802 -35.1875 694.9375 C-35.96480469 695.97777344 -36.74210937 697.01804687 -37.54296875 698.08984375 C-43.65406196 705.32794302 -43.65406196 705.32794302 -48.1953125 706.62890625 C-51.47235048 706.51613369 -53.70629968 706.1835627 -56.5 704.4375 C-58.48849951 701.2061883 -58.46170867 698.66021816 -58 695 C-57.01108725 691.10221516 -55.66445452 687.34747763 -54.3125 683.5625 C-53.88678711 682.34731689 -53.46107422 681.13213379 -53.02246094 679.88012695 C-47.71122199 664.83460368 -41.9953453 649.93214222 -36.3600769 635.00601196 C-30.19775104 618.68130138 -24.21780814 602.31486951 -18.53713989 585.81661987 C-13.72063752 571.84018279 -8.48993693 558.07603812 -2.90112305 544.38964844 C-1.17699115 539.81749916 -0.64193672 535.92337014 -1 531 C-1.99250766 529.20184239 -1.99250766 529.20184239 -4 528 C-6.54458246 527.49958695 -8.90759951 527.17507902 -11.47802734 526.95678711 C-12.61779022 526.84390602 -12.61779022 526.84390602 -13.78057861 526.72874451 C-16.2980013 526.4824587 -18.81677021 526.25502908 -21.3359375 526.02734375 C-23.0942491 525.85833265 -24.852437 525.68803002 -26.61050415 525.51649475 C-31.2503599 525.06680027 -35.89152687 524.63253328 -40.53320312 524.2020874 C-47.92655759 523.51372418 -55.31762864 522.80121522 -62.70885086 522.09039497 C-65.27445716 521.84570727 -67.84055932 521.60697702 -70.40682983 521.36936951 C-97.19422605 518.86019887 -97.19422605 518.86019887 -105 514 C-107.08219487 510.87670769 -107.3819537 509.73884455 -106.71875 506.12890625 C-105.07888834 501.2717073 -101.90811323 497.17182062 -99 493 C-98.43200684 492.18088135 -98.43200684 492.18088135 -97.85253906 491.34521484 C-93.33627716 484.85285642 -88.64539886 478.51593764 -83.81762695 472.25341797 C-83.35383888 471.65117905 -82.89005081 471.04894012 -82.41220856 470.42845154 C-81.27514065 468.952043 -80.13761616 467.47598613 -79 466 C-79.93943954 465.99635437 -80.87887909 465.99270874 -81.8467865 465.98895264 C-90.77439035 465.9517362 -99.70165772 465.89367881 -108.62900448 465.81609726 C-113.21679385 465.77687386 -117.80439849 465.74456391 -122.39233398 465.72900391 C-126.83409868 465.71366939 -131.27535461 465.6789347 -135.71689034 465.63169098 C-137.39698381 465.6170479 -139.07714999 465.60896901 -140.75730705 465.60811615 C-155.38428681 465.59324798 -169.34950558 463.60065585 -182.875 457.6875 C-183.57568604 457.38900146 -184.27637207 457.09050293 -184.99829102 456.78295898 C-191.07811303 454.115389 -196.62600439 450.90913468 -202 447 C-202.80308594 446.41863281 -203.60617187 445.83726562 -204.43359375 445.23828125 C-212.50517653 439.07804927 -221.34048553 431.4892717 -227 423 C-233.12660871 423.42639401 -239.1357502 424.00513108 -245.1875 425.0625 C-281.08008647 430.36662667 -317.24276751 421.63666102 -346.55859375 400.47265625 C-378.71380831 376.46676353 -396.63758944 342.7991634 -403.5859375 303.703125 C-407.80650429 265.95692391 -398.43908937 227.25943876 -374.69921875 197.36181641 C-368.66497601 189.85596619 -362.28789166 182.31807437 -355 176 C-354.34 176 -353.68 176 -353 176 C-353 175.34 -353 174.68 -353 174 C-351.03566821 172.376357 -349.08180076 170.89827681 -347 169.4375 C-346.06136108 168.77476074 -346.06136108 168.77476074 -345.10375977 168.09863281 C-338.02619392 163.19534699 -330.61004287 159.01086031 -323 155 C-321.9790625 154.44441406 -320.958125 153.88882813 -319.90625 153.31640625 C-295.11466821 140.75751284 -262.09346257 137.08005682 -235 143 C-234.34 143.33 -233.68 143.66 -233 144 C-232.89768066 143.38979004 -232.79536133 142.77958008 -232.68994141 142.15087891 C-231.55285142 135.89508667 -229.80125295 130.24258882 -227.375 124.375 C-227.02091064 123.50963623 -226.66682129 122.64427246 -226.30200195 121.75268555 C-215.58754333 95.95686144 -200.28027811 74.11107761 -181 54 C-180.26652344 53.21882813 -179.53304687 52.43765625 -178.77734375 51.6328125 C-177 50 -177 50 -175 50 C-175 49.34 -175 48.68 -175 48 C-172.99615567 46.24587487 -170.98791602 44.61419469 -168.875 43 C-167.9166626 42.26305908 -167.9166626 42.26305908 -166.93896484 41.51123047 C-165.60607831 40.49165584 -164.27025429 39.47591085 -162.93164062 38.46386719 C-161.73224133 37.55491899 -160.53732193 36.63998718 -159.34960938 35.71582031 C-142.19996404 22.37361196 -122.49241647 12.95651655 -102 6 C-100.84757812 5.59394531 -99.69515625 5.18789062 -98.5078125 4.76953125 C-88.9051928 1.58087509 -78.95313439 -0.27508217 -69 -2 C-68.2992334 -2.12149414 -67.5984668 -2.24298828 -66.87646484 -2.36816406 C-44.53154847 -6.04205215 -22.08022546 -4.4491477 0 0 Z " fill="#A3C1CA" transform="translate(518,146)"/>
<path d="M0 0 C1.19375244 0.23227295 1.19375244 0.23227295 2.41162109 0.46923828 C28.83904533 5.70600898 54.35155037 16.96364482 76 33 C76.56799316 33.41540039 77.13598633 33.83080078 77.72119141 34.25878906 C85.0186199 39.64102746 91.80532106 45.50756752 98.4375 51.6875 C99.08775146 52.29295654 99.73800293 52.89841309 100.40795898 53.5222168 C128.3640476 80.02753344 147.44570293 115.05170117 157.375 152 C157.62628662 152.93150879 157.87757324 153.86301758 158.13647461 154.82275391 C159.76383979 161.19702686 160.58903168 167.43720092 161 174 C160.505 173.319375 160.01 172.63875 159.5 171.9375 C134.64377692 142.73143788 93.45203379 126.1673085 56 123 C43.52698216 122.31678694 31.304547 122.82049504 19 125 C17.82953125 125.18304688 16.6590625 125.36609375 15.453125 125.5546875 C-17.30535976 131.24875889 -46.06380897 148.47182021 -70 171 C-70.58910156 171.53625 -71.17820312 172.0725 -71.78515625 172.625 C-91.89385145 191.64031461 -105.25797439 218.15023553 -114 244 C-115.24652344 243.7834375 -116.49304688 243.566875 -117.77734375 243.34375 C-147.68436898 238.35875301 -175.2963937 241.99015574 -201 259 C-203.81746251 261.1052415 -206.52623633 263.25925295 -209.1796875 265.56640625 C-211 267 -211 267 -213 267 C-213 267.66 -213 268.32 -213 269 C-214.06380389 269.96321498 -215.1795922 270.86910175 -216.3125 271.75 C-235.17706929 287.91486944 -248.07335592 314.37303243 -250 339 C-251.59489839 369.00051408 -247.23223066 393.22208788 -230 418 C-229.01 419.485 -229.01 419.485 -228 421 C-252.86497317 432.43788766 -289.31467765 427.07738843 -314.16259766 418.22998047 C-349.13543788 404.81179595 -376.51227081 377.8498186 -392 344 C-406.70855063 310.18952458 -409.15521634 270.20167444 -395.97460938 235.43164062 C-386.91532204 212.82880949 -373.53552543 192.06895844 -355 176 C-354.34 176 -353.68 176 -353 176 C-353 175.34 -353 174.68 -353 174 C-351.03566821 172.376357 -349.08180076 170.89827681 -347 169.4375 C-346.06136108 168.77476074 -346.06136108 168.77476074 -345.10375977 168.09863281 C-338.02619392 163.19534699 -330.61004287 159.01086031 -323 155 C-321.9790625 154.44441406 -320.958125 153.88882813 -319.90625 153.31640625 C-295.11466821 140.75751284 -262.09346257 137.08005682 -235 143 C-234.34 143.33 -233.68 143.66 -233 144 C-232.89768066 143.38979004 -232.79536133 142.77958008 -232.68994141 142.15087891 C-231.55285142 135.89508667 -229.80125295 130.24258882 -227.375 124.375 C-227.02091064 123.50963623 -226.66682129 122.64427246 -226.30200195 121.75268555 C-215.58754333 95.95686144 -200.28027811 74.11107761 -181 54 C-180.26652344 53.21882813 -179.53304687 52.43765625 -178.77734375 51.6328125 C-177 50 -177 50 -175 50 C-175 49.34 -175 48.68 -175 48 C-172.99615567 46.24587487 -170.98791602 44.61419469 -168.875 43 C-167.9166626 42.26305908 -167.9166626 42.26305908 -166.93896484 41.51123047 C-165.60607831 40.49165584 -164.27025429 39.47591085 -162.93164062 38.46386719 C-161.73224133 37.55491899 -160.53732193 36.63998718 -159.34960938 35.71582031 C-142.19996404 22.37361196 -122.49241647 12.95651655 -102 6 C-100.84757812 5.59394531 -99.69515625 5.18789062 -98.5078125 4.76953125 C-88.9051928 1.58087509 -78.95313439 -0.27508217 -69 -2 C-68.2992334 -2.12149414 -67.5984668 -2.24298828 -66.87646484 -2.36816406 C-44.53154847 -6.04205215 -22.08022546 -4.4491477 0 0 Z " fill="#87ABB4" transform="translate(518,146)"/>
<path d="M0 0 C2.625 1.4375 2.625 1.4375 4 4 C4.88258541 12.43647815 2.14218537 18.88146139 -1 26.625 C-1.94147077 28.99061106 -2.87883247 31.35786078 -3.8125 33.7265625 C-4.06162643 34.35603287 -4.31075287 34.98550323 -4.56742859 35.63404846 C-6.77878633 41.28581321 -8.74593314 47.01136981 -10.70703125 52.75390625 C-14.87066088 64.88954073 -19.53060766 76.81001881 -24.26574707 88.73223877 C-26.69624096 94.85271361 -29.11092535 100.97942631 -31.52734375 107.10546875 C-32.23771286 108.90479858 -32.23771286 108.90479858 -32.96243286 110.74047852 C-36.94902149 120.84686774 -40.87595713 130.97498168 -44.75 141.125 C-45.01412689 141.81542389 -45.27825378 142.50584778 -45.55038452 143.2171936 C-50.73843898 155.74708529 -50.73843898 155.74708529 -52 169 C-50.27773504 172.24849977 -50.27773504 172.24849977 -47 173 C-45.51387243 173.09410611 -44.02391698 173.13324049 -42.53482056 173.13803101 C-41.16375908 173.14621101 -41.16375908 173.14621101 -39.76499939 173.15455627 C-38.26411522 173.15611977 -38.26411522 173.15611977 -36.73291016 173.15771484 C-35.67736435 173.16279556 -34.62181854 173.16787628 -33.5342865 173.17311096 C-31.23929299 173.18382049 -28.944289 173.19243838 -26.64928055 173.19923019 C-23.01827762 173.2110049 -19.38739439 173.23045371 -15.75643921 173.25234985 C-5.43174206 173.31401758 4.89294284 173.36804311 15.21777344 173.40136719 C21.53016001 173.42229125 27.84232849 173.45757607 34.15459061 173.50212479 C36.56193096 173.51630249 38.9693099 173.5250112 41.37668991 173.52817917 C44.7427331 173.53307789 48.10819555 173.55620969 51.47412109 173.58349609 C52.47066208 173.58048996 53.46720306 173.57748383 54.49394226 173.5743866 C63.27535759 173.68030611 63.27535759 173.68030611 67 177 C68.02532799 182.81019196 66.1703857 187.22372703 63 192 C61.18239087 194.28736894 59.31481031 196.52137153 57.40869141 198.73535156 C53.2149469 203.6382992 49.35137166 208.76307912 45.5 213.9375 C44.85135986 214.80761719 44.20271973 215.67773438 43.53442383 216.57421875 C42.26509556 218.27755884 40.99612262 219.9811638 39.72753906 221.68505859 C30.69563349 233.78801628 21.24226895 245.54893323 11.55078125 257.12890625 C4.25172268 265.8689191 -2.64254082 274.81316753 -9.34765625 284.015625 C-18.54228107 296.61706322 -28.02017845 309.01047257 -38 321 C-45.55790113 330.1786924 -52.93711573 339.43348138 -60 349 C-61.41591916 350.87556455 -62.83260695 352.75054904 -64.25 354.625 C-68.04720296 359.68131039 -71.74821886 364.80207207 -75.4375 369.9375 C-80.07010968 376.38181973 -84.80276628 382.72517338 -89.671875 388.9921875 C-91.97886849 391.97269922 -94.24491378 394.98007684 -96.5 398 C-97.22832031 398.97066406 -97.95664062 399.94132812 -98.70703125 400.94140625 C-99.89633801 402.52782395 -101.08512476 404.1146478 -102.26708984 405.70654297 C-103.56715868 407.4553468 -104.87655776 409.19683802 -106.1875 410.9375 C-106.96480469 411.97777344 -107.74210937 413.01804687 -108.54296875 414.08984375 C-114.65406196 421.32794302 -114.65406196 421.32794302 -119.1953125 422.62890625 C-122.47235048 422.51613369 -124.70629968 422.1835627 -127.5 420.4375 C-129.48849951 417.2061883 -129.46170867 414.66021816 -129 411 C-128.01108725 407.10221516 -126.66445452 403.34747763 -125.3125 399.5625 C-124.88678711 398.34731689 -124.46107422 397.13213379 -124.02246094 395.88012695 C-118.71122199 380.83460368 -112.9953453 365.93214222 -107.3600769 351.00601196 C-101.19775104 334.68130138 -95.21780814 318.31486951 -89.53713989 301.81661987 C-84.72063752 287.84018279 -79.48993693 274.07603812 -73.90112305 260.38964844 C-72.17699115 255.81749916 -71.64193672 251.92337014 -72 247 C-72.99250766 245.20184239 -72.99250766 245.20184239 -75 244 C-77.54458246 243.49958695 -79.90759951 243.17507902 -82.47802734 242.95678711 C-83.23786926 242.88153305 -83.99771118 242.80627899 -84.78057861 242.72874451 C-87.2980013 242.4824587 -89.81677021 242.25502908 -92.3359375 242.02734375 C-94.0942491 241.85833265 -95.852437 241.68803002 -97.61050415 241.51649475 C-102.2503599 241.06680027 -106.89152687 240.63253328 -111.53320312 240.2020874 C-118.92655759 239.51372418 -126.31762864 238.80121522 -133.70885086 238.09039497 C-136.27445716 237.84570727 -138.84055932 237.60697702 -141.40682983 237.36936951 C-168.19422605 234.86019887 -168.19422605 234.86019887 -176 230 C-178.08219487 226.87670769 -178.3819537 225.73884455 -177.71875 222.12890625 C-176.07876921 217.27135446 -172.90721468 213.17283273 -170 209 C-169.62665527 208.45923828 -169.25331055 207.91847656 -168.86865234 207.36132812 C-162.96250687 198.82885908 -156.66890093 190.63326495 -150.20605469 182.51757812 C-147.43934533 179.03622886 -144.72099931 175.51709955 -142 172 C-141.26523437 171.05125 -140.53046875 170.1025 -139.7734375 169.125 C-130.76967664 157.47489422 -121.96151684 145.68235597 -113.25 133.8125 C-107.50917281 125.99203434 -101.65195159 118.26598423 -95.75537109 110.5625 C-91.90202701 105.5208464 -88.10189941 100.44820496 -84.375 95.3125 C-79.2597378 88.27215982 -73.91785448 81.41798242 -68.55859375 74.5625 C-60.71220537 64.52118264 -53.01127832 54.36867047 -45.37890625 44.1640625 C-38.35038775 34.81578666 -31.27585601 25.50389563 -23.91015625 16.41796875 C-20.82685724 12.5149788 -17.90782419 8.48933021 -14.98046875 4.46875 C-10.72906821 -0.83082622 -6.35579065 -0.80097525 0 0 Z " fill="#FEBC40" transform="translate(589,430)"/>
<path d="M0 0 C27.29606821 -0.63177843 27.29606821 -0.63177843 40 3 C41.23621094 3.35191406 42.47242188 3.70382812 43.74609375 4.06640625 C72.3175665 12.92736453 94.89207198 31.3291647 108.9921875 57.6484375 C119.696381 78.66120424 122.03401145 100.94850599 118 124 C117.78601563 123.47019531 117.57203125 122.94039063 117.3515625 122.39453125 C115.4805947 119.07978194 112.96434262 116.445756 110.375 113.6875 C109.83012939 113.10645508 109.28525879 112.52541016 108.72387695 111.92675781 C86.07641684 87.99559529 58.61844375 81.93740909 26.74975586 81.04418945 C26.17233643 81.02960693 25.59491699 81.01502441 25 81 C24.91548584 80.30253662 24.83097168 79.60507324 24.74389648 78.88647461 C21.43170619 52.37376871 14.33994216 30.22121915 2.19580078 6.56762695 C1.16372556 4.35155201 0.47752656 2.38657788 0 0 Z " fill="#87ABB3" transform="translate(699,344)"/>
<path d="M0 0 C0.66 0.33 1.32 0.66 2 1 C1.48474397 6.28137429 -0.25477117 9.57221156 -3 14 C-4.25955231 10.22134307 -3.48087189 8.96588214 -2.0625 5.3125 C-1.68222656 4.31863281 -1.30195312 3.32476563 -0.91015625 2.30078125 C-0.60980469 1.54152344 -0.30945313 0.78226563 0 0 Z " fill="#FEB42D" transform="translate(519,679)"/>
<path d="M0 0 C1.27351308 2.54702616 0.80191925 3.4282945 0.0625 6.125 C-0.13214844 6.84945312 -0.32679688 7.57390625 -0.52734375 8.3203125 C-0.76130859 9.15175781 -0.76130859 9.15175781 -1 10 C-1.66 10 -2.32 10 -3 10 C-3.66 11.32 -4.32 12.64 -5 14 C-4.46515599 8.65155992 -2.53309233 4.64203897 0 0 Z " fill="#94BDD5" transform="translate(569,507)"/>
<path d="M0 0 C0.33 0.66 0.66 1.32 1 2 C-1.31 4.97 -3.62 7.94 -6 11 C-6 8.37886292 -5.68707555 6.49064888 -5 4 C-4.34 4 -3.68 4 -3 4 C-3 3.01 -3 2.02 -3 1 C-2.01 0.67 -1.02 0.34 0 0 Z " fill="#95BDD2" transform="translate(519,504)"/>
<path d="M0 0 C1.09658936 3.28976808 0.79953138 4.71303767 0 8 C-0.66 8 -1.32 8 -2 8 C-2.33 8.66 -2.66 9.32 -3 10 C-2.69201674 8.51988629 -2.378482 7.04092675 -2.0625 5.5625 C-1.88847656 4.73878906 -1.71445312 3.91507813 -1.53515625 3.06640625 C-1 1 -1 1 0 0 Z " fill="#FDB123" transform="translate(477,795)"/>
<path d="M0 0 C0.66 1.32 1.32 2.64 2 4 C0.625 6 0.625 6 -1 8 C-1.66 8 -2.32 8 -3 8 C-1.125 1.125 -1.125 1.125 0 0 Z " fill="#97BCD0" transform="translate(558,535)"/>
<path d="M0 0 C0.99 0.33 1.98 0.66 3 1 C1.75023244 4.65316671 1.32901247 5.78065836 -2 8 C-1.34 5.36 -0.68 2.72 0 0 Z " fill="#9ABDCF" transform="translate(540,473)"/>
<path d="M0 0 C0 3 0 3 -2.5 5.6875 C-3.325 6.450625 -4.15 7.21375 -5 8 C-4.1875 4.5625 -4.1875 4.5625 -3 1 C-2.01 0.67 -1.02 0.34 0 0 Z " fill="#FEB01C" transform="translate(526,780)"/>
</svg>
