<?xml version="1.0" encoding="UTF-8"?>
<svg version="1.1" xmlns="http://www.w3.org/2000/svg" width="128" height="128">
<path d="M0 0 C6.82794662 5.56610844 12.31420839 13.6064155 13.75 22.375 C14.64916842 33.12006257 14.36499131 43.03400194 7.796875 52.05859375 C0.4175049 60.74096451 -7.43857495 66.68386568 -19.046875 67.7109375 C-31.87441193 67.83769182 -40.56658048 65.91956999 -50.08984375 56.66796875 C-58.09372614 48.1719851 -60.78991811 40.10169805 -60.66503906 28.39428711 C-60.21814883 16.63307414 -55.69715631 9.3328832 -47.25 1.375 C-34.16066361 -10.31290851 -14.10496751 -9.47509268 0 0 Z " fill="#FC9E59" transform="translate(87.25,33.625)"/>
<path d="M0 0 C8.47882257 5.32391185 15.57806853 12.42518729 18.4921875 22.22265625 C20.31435308 32.18850032 20.14051853 43.05936696 15 52 C8.53955438 60.87665229 0.81151254 67.51199502 -10 70 C-12.71624555 70.25722276 -15.39831816 70.28092645 -18.125 70.25 C-18.81464844 70.25773437 -19.50429688 70.26546875 -20.21484375 70.2734375 C-24.25063159 70.25800428 -27.36925036 69.78005624 -31 68 C-28.55735671 65.29680809 -25.86706166 63.61327149 -22.75 61.75 C-10.7575758 54.17583735 -3.21518353 43.71948273 0.3515625 29.89453125 C2.00445152 19.96723996 1.37761726 9.92332432 0 0 Z " fill="#FE8B35" transform="translate(82,31)"/>
<path d="M0 0 C1.66796875 1.0859375 1.66796875 1.0859375 3 3 C3.36328125 6.25 3.36328125 6.25 3.3125 10 C3.30863281 11.2375 3.30476563 12.475 3.30078125 13.75 C3 17 3 17 1 20 C-0.875 20.3984375 -0.875 20.3984375 -3 20.375 C-3.70125 20.38273437 -4.4025 20.39046875 -5.125 20.3984375 C-7 20 -7 20 -9 17 C-9.30078125 13.75 -9.30078125 13.75 -9.3125 10 C-9.32925781 8.7625 -9.34601562 7.525 -9.36328125 6.25 C-9 3 -9 3 -7.66796875 1.0859375 C-5.05269941 -0.61674371 -3.03368609 -0.37921076 0 0 Z " fill="#FF8A32" transform="translate(67,108)"/>
<path d="M0 0 C1.2375 0.00386719 2.475 0.00773437 3.75 0.01171875 C7 0.3125 7 0.3125 10 2.3125 C10.3984375 4.1875 10.3984375 4.1875 10.375 6.3125 C10.38273437 7.01375 10.39046875 7.715 10.3984375 8.4375 C10 10.3125 10 10.3125 7 12.3125 C3.75 12.61328125 3.75 12.61328125 0 12.625 C-1.85625 12.65013672 -1.85625 12.65013672 -3.75 12.67578125 C-7 12.3125 -7 12.3125 -8.9140625 10.98046875 C-10.61674371 8.36519941 -10.37921076 6.34618609 -10 3.3125 C-7.47973322 -0.55855725 -4.31182653 -0.05838932 0 0 Z " fill="#FF8A32" transform="translate(118,57.6875)"/>
<path d="M0 0 C1.2375 -0.01675781 2.475 -0.03351562 3.75 -0.05078125 C7 0.3125 7 0.3125 8.9140625 1.64453125 C10.61674371 4.25980059 10.37921076 6.27881391 10 9.3125 C8.9140625 10.98046875 8.9140625 10.98046875 7 12.3125 C3.75 12.67578125 3.75 12.67578125 0 12.625 C-1.2375 12.62113281 -2.475 12.61726563 -3.75 12.61328125 C-7 12.3125 -7 12.3125 -10 10.3125 C-10.3984375 8.4375 -10.3984375 8.4375 -10.375 6.3125 C-10.38273438 5.61125 -10.39046875 4.91 -10.3984375 4.1875 C-9.34086884 -0.78929368 -4.01338956 0.01254184 0 0 Z " fill="#FF8B33" transform="translate(10,57.6875)"/>
<path d="M0 0 C1.051875 0.01160156 1.051875 0.01160156 2.125 0.0234375 C2.82625 0.01570312 3.5275 0.00796875 4.25 0 C6.125 0.3984375 6.125 0.3984375 8.125 3.3984375 C8.42578125 6.6484375 8.42578125 6.6484375 8.4375 10.3984375 C8.45425781 11.6359375 8.47101563 12.8734375 8.48828125 14.1484375 C8.125 17.3984375 8.125 17.3984375 6.79296875 19.3125 C4.17769941 21.01518121 2.15868609 20.77764826 -0.875 20.3984375 C-2.54296875 19.3125 -2.54296875 19.3125 -3.875 17.3984375 C-4.23828125 14.1484375 -4.23828125 14.1484375 -4.1875 10.3984375 C-4.18363281 9.1609375 -4.17976563 7.9234375 -4.17578125 6.6484375 C-3.63190794 0.77178044 -3.63190794 0.77178044 0 0 Z " fill="#FF8B33" transform="translate(61.875,-0.3984375)"/>
<path d="M0 0 C4.90269308 1.88565119 8.2019171 4.99475556 11.25 9.25 C11.875 13.125 11.875 13.125 11.25 16.25 C9.25 18.25 9.25 18.25 6.125 18.875 C0.42850109 17.95620985 -2.36642956 14.77777301 -5.75 10.25 C-7 7 -7 7 -6.75 4.25 C-4.76748502 1.15727664 -3.6712166 0.33374696 0 0 Z " fill="#FF8934" transform="translate(99.75,92.75)"/>
<path d="M0 0 C2 3 2 3 2.125 5.6875 C0.42378232 10.69664094 -2.72467221 13.93753116 -7 17 C-10.875 17.625 -10.875 17.625 -14 17 C-16 15 -16 15 -16.625 11.875 C-15.71334662 6.22274904 -12.30974145 3.54818072 -8 0 C-5.06791253 -1.46604374 -3.11702298 -0.77925574 0 0 Z " fill="#FF8A34" transform="translate(33,94)"/>
<path d="M0 0 C3.125 0.625 3.125 0.625 5.125 2.625 C5.75 5.75 5.75 5.75 5.125 9.625 C2.0769171 13.88024444 -1.22230692 16.98934881 -6.125 18.875 C-8.875 18.625 -8.875 18.625 -11.3125 17.0625 C-12.875 14.625 -12.875 14.625 -13.125 11.875 C-10.77554232 5.76641002 -6.5628814 1.05852926 0 0 Z " fill="#FF8A34" transform="translate(105.875,16.375)"/>
<path d="M0 0 C5.69649891 0.91879015 8.49142956 4.09722699 11.875 8.625 C13.125 11.875 13.125 11.875 12.875 14.625 C11.3125 17.0625 11.3125 17.0625 8.875 18.625 C5.34782435 18.94565233 3.52199565 18.10849495 0.7109375 16.0078125 C-2.9636352 12.67083305 -4.94371709 10.74895407 -5.75 5.75 C-4.9116165 1.55808248 -4.19191752 0.8383835 0 0 Z " fill="#FF8934" transform="translate(22.125,16.375)"/>
</svg>
